<?xml version="1.0" encoding="UTF-8" standalone="no"?>
<svg
   xmlns:dc="http://purl.org/dc/elements/1.1/"
   xmlns:cc="http://creativecommons.org/ns#"
   xmlns:rdf="http://www.w3.org/1999/02/22-rdf-syntax-ns#"
   xmlns:svg="http://www.w3.org/2000/svg"
   xmlns="http://www.w3.org/2000/svg"
   xmlns:sodipodi="http://sodipodi.sourceforge.net/DTD/sodipodi-0.dtd"
   xmlns:inkscape="http://www.inkscape.org/namespaces/inkscape"
   width="44.99984mm"
   height="45.000355mm"
   viewBox="0 0 44.99984 45.000355"
   version="1.1"
   id="svg949"
   inkscape:version="1.0.2 (1.0.2+r75+1)"
   sodipodi:docname="bridge-01.svg">
  <defs
     id="defs943" />
  <sodipodi:namedview
     id="base"
     pagecolor="#ffffff"
     bordercolor="#666666"
     borderopacity="1.0"
     inkscape:pageopacity="0.0"
     inkscape:pageshadow="2"
     inkscape:zoom="1.5877926"
     inkscape:cx="77.551134"
     inkscape:cy="40.961668"
     inkscape:document-units="mm"
     inkscape:current-layer="layer1"
     inkscape:document-rotation="0"
     showgrid="false"
     fit-margin-top="0"
     fit-margin-left="0"
     fit-margin-right="0"
     fit-margin-bottom="0"
     inkscape:window-width="1366"
     inkscape:window-height="708"
     inkscape:window-x="0"
     inkscape:window-y="0"
     inkscape:window-maximized="1" />
  <metadata
     id="metadata946">
    <rdf:RDF>
      <cc:Work
         rdf:about="">
        <dc:format>image/svg+xml</dc:format>
        <dc:type
           rdf:resource="http://purl.org/dc/dcmitype/StillImage" />
        <dc:title></dc:title>
      </cc:Work>
    </rdf:RDF>
  </metadata>
  <g
     inkscape:label="Layer 1"
     inkscape:groupmode="layer"
     id="layer1"
     transform="translate(-72.38071,-66.493907)">
    <g
       id="g2942"
       transform="translate(124.64522,-25.281885)">
      <path
         id="rect66-3"
         style="fill:#f2eadf;fill-opacity:1;stroke-width:0.167491;stroke-linecap:square;stroke-linejoin:round;paint-order:markers fill stroke"
         d="m -46.547545,91.775792 c -3.167261,0 -5.716965,2.54971 -5.716965,5.71696 v 33.565908 c 0,3.16726 2.549704,5.71748 5.716965,5.71748 h 33.565909 c 3.1672594,0 5.7169644,-2.55022 5.7169644,-5.71748 V 97.492752 c 0,-3.16725 -2.549705,-5.71696 -5.7169644,-5.71696 z"
         sodipodi:nodetypes="sssssssss" />
      <path
         id="rect66"
         style="fill:#1597a7;fill-opacity:1;stroke-width:0.633037;stroke-linecap:square;stroke-linejoin:round;paint-order:markers fill stroke"
         d="m -175.92773,346.86914 c -11.97075,0 -21.60743,9.63668 -21.60743,21.60742 v 126.86328 c 0,11.97075 9.63668,21.60938 21.60743,21.60938 h 126.863277 c 11.970744,0 21.607422,-9.63863 21.607422,-21.60938 V 368.47656 c 0,-11.97074 -9.636678,-21.60742 -21.607422,-21.60742 z m 0.89843,7.55859 h 125.066409 c 8.280769,0 14.947266,6.6665 14.947266,14.94727 v 125.06641 c 0,8.28076 -6.666497,14.94726 -14.947266,14.94726 H -175.0293 c -8.28077,0 -14.94726,-6.6665 -14.94726,-14.94726 V 369.375 c 0,-8.28077 6.66649,-14.94727 14.94726,-14.94727 z"
         transform="scale(0.26458333)" />
      <path
         id="rect94"
         style="fill:#1597a8;fill-opacity:1;stroke-width:1.47593;stroke-linecap:square;stroke-linejoin:round;paint-order:markers fill stroke"
         d="m -173.07617,360.66602 c -5.90822,0 -10.66406,4.75584 -10.66406,10.66406 v 62.41015 c 10.03423,0.56572 24.70701,1.81022 41.33203,4.66211 v -55.21093 c 0,-6.83801 5.50379,-12.34375 12.34179,-12.34375 h 5.08985 c -0.004,0.11096 -0.005,0.22102 -0.006,0.33203 -4.7e-4,6.74475 5.88239,12.21285 13.14062,12.21289 7.25822,-4e-5 13.143054,-5.46815 13.142581,-12.21289 -3.85e-4,-0.11101 -0.0022,-0.22107 -0.0059,-0.33203 h 5.333984 c 6.838001,0 12.34375,5.50574 12.34375,12.34375 v 73.51757 c -5.65683,-2.50934 -11.669937,-4.96863 -17.90039,-7.21484 V 430.11133 H -124.875 v 11.80273 c 2.13235,0.49225 4.27311,1.00672 6.42188,1.55664 37.775583,9.66736 72.846097,31.74636 77.201167,34.54492 V 371.33008 c 0,-5.90822 -4.755846,-10.66406 -10.664063,-10.66406 z m 61.17383,40.46289 c -7.18752,0 -12.97266,5.78512 -12.97266,12.97265 v 8.66992 h 25.947266 v -8.66992 c 0,-7.18753 -5.787126,-12.97265 -12.974606,-12.97265 z"
         transform="scale(0.26458333)" />
      <path
         id="rect94-5"
         style="fill:#ff8c65;fill-opacity:1;stroke-width:0.390506;stroke-linecap:square;stroke-linejoin:round;paint-order:markers fill stroke"
         d="m -48.614099,119.30072 v 11.00346 c 0,1.56322 1.25831,2.82153 2.82153,2.82153 h 8.11423 v -7.9809 c 0.27399,-1.94312 1.94618,-3.43852 3.96978,-3.43855 0.22476,1e-5 0.44877,0.0203 0.66921,0.0574 v 11.36209 h 6.865219 v -4.77128 c 0.585052,-1.48666 2.035664,-2.53936 3.733622,-2.53938 0.277613,0 0.553092,0.031 0.823205,0.0879 -2.559358,-1.22971 -5.547609,-2.51512 -8.703856,-3.55689 -6.22831,-2.05577 -14.07935,-2.78868 -18.29294,-3.04529 z m 27.176114,6.68796 v 7.13703 h 7.702372 c 1.076528,0 2.008101,-0.59679 2.484086,-1.47898 -2.72723,-1.61931 -7.166126,-4.19849 -10.186458,-5.65805 z"
         sodipodi:nodetypes="cssccsccccscsccccscc" />
    </g>
  </g>
</svg>
